<svg width="400" height="367" viewBox="0 0 400 367" fill="none" xmlns="http://www.w3.org/2000/svg">
<path d="M72.2197 288.156C53.1704 288.156 39.4592 281.224 31.0859 267.361C22.9219 253.215 18.8399 232.42 18.8399 204.977V78.0864H0V73.8426L18.8399 69.5988L86.3496 0H92.6296V63.233L120.89 73.8426V78.0864H92.6296V239.352C92.6296 249.82 93.8856 257.459 96.3976 262.269C99.1189 266.795 102.364 269.059 106.132 269.059C108.225 269.059 110.318 268.493 112.412 267.361C114.505 266.229 116.598 264.673 118.692 262.693V271.181C115.761 273.727 112.516 276.132 108.958 278.395C105.399 280.376 101.631 282.073 97.6536 283.488C93.8856 285.185 89.8036 286.317 85.4076 286.883C81.221 287.732 76.825 288.156 72.2197 288.156Z" fill="#D1FFA0"/>
<path d="M120.742 366.667V362.423L136.442 356.482V84.8765H120.742V80.2083L210.232 63.233V132.407L212.744 135.802C214.209 129.861 216.303 122.788 219.024 114.583C221.955 106.379 225.618 98.4568 230.014 90.8179C234.41 82.8961 239.643 76.3889 245.714 71.2963C251.994 65.9208 259.111 63.233 267.066 63.233C279.835 63.233 290.825 67.9012 300.036 77.2377C309.246 86.2912 316.363 98.7397 321.387 114.583C326.411 130.144 328.923 147.685 328.923 167.207C328.923 196.631 325.783 220.255 319.503 238.079C313.224 255.62 304.955 268.351 294.698 276.273C284.44 284.195 273.346 288.156 261.414 288.156C249.9 288.156 240.48 285.893 233.154 281.366C226.037 276.556 220.699 271.463 217.14 266.088C213.581 260.43 211.279 256.469 210.232 254.205V356.057L225.932 362.423V366.667H120.742ZM230.956 267.786C236.399 267.786 240.69 263.966 243.83 256.327C247.179 248.688 249.586 238.22 251.052 224.923C252.726 211.626 253.564 196.631 253.564 179.938C253.564 158.719 252.936 142.027 251.68 129.861C250.633 117.413 248.958 108.501 246.656 103.125C244.562 97.7495 241.841 95.0617 238.492 95.0617C235.98 95.0617 233.573 96.1934 231.27 98.4568C229.177 100.72 226.979 104.398 224.676 109.491C222.373 114.583 220.071 121.091 217.768 129.012C215.465 136.934 212.953 146.695 210.232 158.295V214.313C210.232 221.952 210.755 229.025 211.802 235.532C212.849 241.757 214.314 247.415 216.198 252.508C218.082 257.317 220.28 261.137 222.792 263.966C225.304 266.512 228.025 267.786 230.956 267.786Z" fill="#D1FFA0"/>
<path d="M369.228 217.284C375.089 217.284 380.323 218.84 384.928 221.952C389.533 224.781 393.197 228.884 395.918 234.259C398.639 239.635 400 246.001 400 253.357C400 260.43 398.639 266.654 395.918 272.029C393.197 277.122 389.533 281.083 384.928 283.912C380.323 286.741 375.089 288.156 369.228 288.156C363.367 288.156 358.134 286.741 353.528 283.912C348.923 281.083 345.26 277.122 342.538 272.029C339.817 266.654 338.456 260.43 338.456 253.357C338.456 246.001 339.817 239.635 342.538 234.259C345.26 228.884 348.923 224.781 353.528 221.952C358.134 218.84 363.367 217.284 369.228 217.284Z" fill="#D1FFA0"/>
</svg>
